<svg width="32" height="32" viewBox="0 0 32 32" fill="none" xmlns="http://www.w3.org/2000/svg">
<path d="M22.364 21.364L20.95 19.95C22.2626 18.6373 23 16.8569 23 15.0005C23 13.1441 22.2626 11.3637 20.95 10.051L22.364 8.63599C23.1998 9.47172 23.8627 10.4639 24.315 11.5558C24.7673 12.6477 25.0001 13.8181 25.0001 15C25.0001 16.1819 24.7673 17.3522 24.315 18.4442C23.8627 19.5361 23.1998 20.5283 22.364 21.364Z" fill="#25294C"/>
<path d="M19.536 18.535L18.122 17.121C18.6834 16.5579 18.9987 15.7952 18.9987 15C18.9987 14.2048 18.6834 13.4421 18.122 12.879L19.536 11.465C20.4721 12.4033 20.9979 13.6746 20.9979 15C20.9979 16.3254 20.4721 17.5967 19.536 18.535ZM17 26H15V15C15 14.7348 15.1054 14.4804 15.2929 14.2929C15.4804 14.1054 15.7348 14 16 14C16.2652 14 16.5196 14.1054 16.7071 14.2929C16.8946 14.4804 17 14.7348 17 15V26ZM12.464 18.535C11.5279 17.5967 11.0021 16.3254 11.0021 15C11.0021 13.6746 11.5279 12.4033 12.464 11.465L13.878 12.879C13.3166 13.4421 13.0013 14.2048 13.0013 15C13.0013 15.7952 13.3166 16.5579 13.878 17.121L12.464 18.535Z" fill="#25294C"/>
<path d="M9.63602 21.364C8.80028 20.5283 8.13733 19.5361 7.68503 18.4442C7.23273 17.3522 6.99994 16.1819 6.99994 15C6.99994 13.8181 7.23273 12.6477 7.68503 11.5558C8.13733 10.4639 8.80028 9.47172 9.63602 8.63599L11.05 10.051C9.73772 11.3637 9.00051 13.1438 9.00051 15C9.00051 16.8561 9.73772 18.6363 11.05 19.949L9.63602 21.364Z" fill="#25294C"/>
<path d="M16 31C15.8229 31.0001 15.649 30.9532 15.496 30.864L3.496 23.864C3.34502 23.7759 3.21978 23.6498 3.13275 23.4982C3.04572 23.3466 2.99995 23.1748 3 23V8.99999C2.99995 8.82519 3.04572 8.65343 3.13275 8.50183C3.21978 8.35023 3.34502 8.22409 3.496 8.13599L15.496 1.13599C15.649 1.04673 15.8229 0.999695 16 0.999695C16.1771 0.999695 16.351 1.04673 16.504 1.13599L28.504 8.13599L27.496 9.86399L16 3.15799L5 9.57399V22.426L16 28.843L27 22.426V15H29V23C29.0001 23.1748 28.9543 23.3466 28.8673 23.4982C28.7802 23.6498 28.655 23.7759 28.504 23.864L16.504 30.864C16.351 30.9532 16.1771 31.0001 16 31Z" fill="#25294C"/>
</svg>
